<?xml version="1.0" encoding="us-ascii" standalone="no"?><svg xmlns="http://www.w3.org/2000/svg" xmlns:xlink="http://www.w3.org/1999/xlink" contentStyleType="text/css" height="587px" preserveAspectRatio="none" style="width:730px;height:587px;background:#FFFFFF;" version="1.1" viewBox="0 0 730 587" width="730px" zoomAndPan="magnify"><defs/><g><!--class Workspace--><g id="elem_Workspace"><rect codeLine="1" fill="#F1F1F1" height="113.1875" id="Workspace" rx="2.5" ry="2.5" style="stroke:#181818;stroke-width:0.5;" width="195" x="7" y="253.52"/><ellipse cx="61.75" cy="269.52" fill="#ADD1B2" rx="11" ry="11" style="stroke:#181818;stroke-width:1.0;"/><path d="M64.7188,275.1606 Q64.1406,275.4575 63.5,275.5981 Q62.8594,275.7544 62.1563,275.7544 Q59.6563,275.7544 58.3281,274.1138 Q57.0156,272.4575 57.0156,269.3325 Q57.0156,266.2075 58.3281,264.5513 Q59.6563,262.895 62.1563,262.895 Q62.8594,262.895 63.5,263.0513 Q64.1563,263.2075 64.7188,263.5044 L64.7188,266.2231 Q64.0938,265.645 63.5,265.3794 Q62.9063,265.0981 62.2813,265.0981 Q60.9375,265.0981 60.25,266.1763 Q59.5625,267.2388 59.5625,269.3325 Q59.5625,271.4263 60.25,272.5044 Q60.9375,273.5669 62.2813,273.5669 Q62.9063,273.5669 63.5,273.3013 Q64.0938,273.02 64.7188,272.4419 L64.7188,275.1606 Z " fill="#000000"/><text fill="#000000" font-family="sans-serif" font-size="14" lengthAdjust="spacing" textLength="77" x="82.25" y="274.3667">Workspace</text><line style="stroke:#181818;stroke-width:0.5;" x1="8" x2="201" y1="285.52" y2="285.52"/><rect fill="none" height="6" style="stroke:#C82930;stroke-width:1.0;" width="6" x="15" y="296.1684"/><text fill="#000000" font-family="sans-serif" font-size="14" lengthAdjust="spacing" textLength="169" x="27" y="302.5151">background_color: Color</text><line style="stroke:#181818;stroke-width:0.5;" x1="8" x2="201" y1="309.8169" y2="309.8169"/><ellipse cx="18" cy="323.4653" fill="#84BE84" rx="3" ry="3" style="stroke:#038048;stroke-width:1.0;"/><text fill="#000000" font-family="sans-serif" font-size="14" lengthAdjust="spacing" textLength="72" x="27" y="326.812">open_file()</text><ellipse cx="18" cy="339.7622" fill="#84BE84" rx="3" ry="3" style="stroke:#038048;stroke-width:1.0;"/><text fill="#000000" font-family="sans-serif" font-size="14" lengthAdjust="spacing" textLength="68" x="27" y="343.1089">save_file()</text><ellipse cx="18" cy="356.0591" fill="#84BE84" rx="3" ry="3" style="stroke:#038048;stroke-width:1.0;"/><text fill="#000000" font-family="sans-serif" font-size="14" lengthAdjust="spacing" textLength="80" x="27" y="359.4057">create_file()</text></g><!--class File--><g id="elem_File"><rect codeLine="8" fill="#F1F1F1" height="129.4844" id="File" rx="2.5" ry="2.5" style="stroke:#181818;stroke-width:0.5;" width="137" x="36" y="451.16"/><ellipse cx="88.75" cy="467.16" fill="#ADD1B2" rx="11" ry="11" style="stroke:#181818;stroke-width:1.0;"/><path d="M91.7188,472.8006 Q91.1406,473.0975 90.5,473.2381 Q89.8594,473.3944 89.1563,473.3944 Q86.6563,473.3944 85.3281,471.7537 Q84.0156,470.0975 84.0156,466.9725 Q84.0156,463.8475 85.3281,462.1912 Q86.6563,460.535 89.1563,460.535 Q89.8594,460.535 90.5,460.6912 Q91.1563,460.8475 91.7188,461.1444 L91.7188,463.8631 Q91.0938,463.285 90.5,463.0194 Q89.9063,462.7381 89.2813,462.7381 Q87.9375,462.7381 87.25,463.8162 Q86.5625,464.8787 86.5625,466.9725 Q86.5625,469.0662 87.25,470.1444 Q87.9375,471.2069 89.2813,471.2069 Q89.9063,471.2069 90.5,470.9412 Q91.0938,470.66 91.7188,470.0819 L91.7188,472.8006 Z " fill="#000000"/><text fill="#000000" font-family="sans-serif" font-size="14" lengthAdjust="spacing" textLength="23" x="109.25" y="472.0067">File</text><line style="stroke:#181818;stroke-width:0.5;" x1="37" x2="172" y1="483.16" y2="483.16"/><rect fill="none" height="6" style="stroke:#C82930;stroke-width:1.0;" width="6" x="44" y="493.8084"/><text fill="#000000" font-family="sans-serif" font-size="14" lengthAdjust="spacing" textLength="89" x="56" y="500.1551">Name: String</text><rect fill="none" height="6" style="stroke:#C82930;stroke-width:1.0;" width="6" x="44" y="510.1053"/><text fill="#000000" font-family="sans-serif" font-size="14" lengthAdjust="spacing" textLength="111" x="56" y="516.452">Directory: String</text><rect fill="none" height="6" style="stroke:#C82930;stroke-width:1.0;" width="6" x="44" y="526.4022"/><text fill="#000000" font-family="sans-serif" font-size="14" lengthAdjust="spacing" textLength="93" x="56" y="532.7489">Height: Pixels</text><rect fill="none" height="6" style="stroke:#C82930;stroke-width:1.0;" width="6" x="44" y="542.6991"/><text fill="#000000" font-family="sans-serif" font-size="14" lengthAdjust="spacing" textLength="87" x="56" y="549.0457">Width: Pixels</text><rect fill="none" height="6" style="stroke:#C82930;stroke-width:1.0;" width="6" x="44" y="558.9959"/><text fill="#000000" font-family="sans-serif" font-size="14" lengthAdjust="spacing" textLength="74" x="56" y="565.3426">style: Style</text><line style="stroke:#181818;stroke-width:0.5;" x1="37" x2="172" y1="572.6444" y2="572.6444"/></g><!--class AI--><g id="elem_AI"><rect codeLine="16" fill="#F1F1F1" height="64.2969" id="AI" rx="2.5" ry="2.5" style="stroke:#181818;stroke-width:0.5;" width="181" x="203" y="55.89"/><ellipse cx="283.25" cy="71.89" fill="#ADD1B2" rx="11" ry="11" style="stroke:#181818;stroke-width:1.0;"/><path d="M286.2188,77.5306 Q285.6406,77.8275 285,77.9681 Q284.3594,78.1244 283.6563,78.1244 Q281.1563,78.1244 279.8281,76.4837 Q278.5156,74.8275 278.5156,71.7025 Q278.5156,68.5775 279.8281,66.9212 Q281.1563,65.265 283.6563,65.265 Q284.3594,65.265 285,65.4212 Q285.6563,65.5775 286.2188,65.8744 L286.2188,68.5931 Q285.5938,68.015 285,67.7494 Q284.4063,67.4681 283.7813,67.4681 Q282.4375,67.4681 281.75,68.5462 Q281.0625,69.6087 281.0625,71.7025 Q281.0625,73.7962 281.75,74.8744 Q282.4375,75.9369 283.7813,75.9369 Q284.4063,75.9369 285,75.6712 Q285.5938,75.39 286.2188,74.8119 L286.2188,77.5306 Z " fill="#000000"/><text fill="#000000" font-family="sans-serif" font-size="14" lengthAdjust="spacing" textLength="12" x="303.75" y="76.7367">AI</text><line style="stroke:#181818;stroke-width:0.5;" x1="204" x2="383" y1="87.89" y2="87.89"/><line style="stroke:#181818;stroke-width:0.5;" x1="204" x2="383" y1="95.89" y2="95.89"/><ellipse cx="214" cy="109.5384" fill="#84BE84" rx="3" ry="3" style="stroke:#038048;stroke-width:1.0;"/><text fill="#000000" font-family="sans-serif" font-size="14" lengthAdjust="spacing" textLength="155" x="223" y="112.8851">TransformStyle(): Style</text></g><!--class Style--><g id="elem_Style"><rect codeLine="20" fill="#F1F1F1" height="64.2969" id="Style" rx="2.5" ry="2.5" style="stroke:#181818;stroke-width:0.5;" width="114" x="236.5" y="277.97"/><ellipse cx="273.55" cy="293.97" fill="#ADD1B2" rx="11" ry="11" style="stroke:#181818;stroke-width:1.0;"/><path d="M276.5188,299.6106 Q275.9406,299.9075 275.3,300.0481 Q274.6594,300.2044 273.9563,300.2044 Q271.4563,300.2044 270.1281,298.5637 Q268.8156,296.9075 268.8156,293.7825 Q268.8156,290.6575 270.1281,289.0012 Q271.4563,287.345 273.9563,287.345 Q274.6594,287.345 275.3,287.5012 Q275.9563,287.6575 276.5188,287.9544 L276.5188,290.6731 Q275.8938,290.095 275.3,289.8294 Q274.7063,289.5481 274.0813,289.5481 Q272.7375,289.5481 272.05,290.6262 Q271.3625,291.6887 271.3625,293.7825 Q271.3625,295.8762 272.05,296.9544 Q272.7375,298.0169 274.0813,298.0169 Q274.7063,298.0169 275.3,297.7512 Q275.8938,297.47 276.5188,296.8919 L276.5188,299.6106 Z " fill="#000000"/><text fill="#000000" font-family="sans-serif" font-size="14" lengthAdjust="spacing" textLength="33" x="292.45" y="298.8167">Style</text><line style="stroke:#181818;stroke-width:0.5;" x1="237.5" x2="349.5" y1="309.97" y2="309.97"/><rect fill="none" height="6" style="stroke:#C82930;stroke-width:1.0;" width="6" x="244.5" y="320.6184"/><text fill="#000000" font-family="sans-serif" font-size="14" lengthAdjust="spacing" textLength="88" x="256.5" y="326.9651">name: String</text><line style="stroke:#181818;stroke-width:0.5;" x1="237.5" x2="349.5" y1="334.2669" y2="334.2669"/></g><!--class Stylus--><g id="elem_Stylus"><rect codeLine="24" fill="#F1F1F1" height="162.0781" id="Stylus" rx="2.5" ry="2.5" style="stroke:#181818;stroke-width:0.5;" width="154" x="419.5" y="7"/><ellipse cx="471.75" cy="23" fill="#ADD1B2" rx="11" ry="11" style="stroke:#181818;stroke-width:1.0;"/><path d="M474.7188,28.6406 Q474.1406,28.9375 473.5,29.0781 Q472.8594,29.2344 472.1563,29.2344 Q469.6563,29.2344 468.3281,27.5938 Q467.0156,25.9375 467.0156,22.8125 Q467.0156,19.6875 468.3281,18.0313 Q469.6563,16.375 472.1563,16.375 Q472.8594,16.375 473.5,16.5313 Q474.1563,16.6875 474.7188,16.9844 L474.7188,19.7031 Q474.0938,19.125 473.5,18.8594 Q472.9063,18.5781 472.2813,18.5781 Q470.9375,18.5781 470.25,19.6563 Q469.5625,20.7188 469.5625,22.8125 Q469.5625,24.9063 470.25,25.9844 Q470.9375,27.0469 472.2813,27.0469 Q472.9063,27.0469 473.5,26.7813 Q474.0938,26.5 474.7188,25.9219 L474.7188,28.6406 Z " fill="#000000"/><text fill="#000000" font-family="sans-serif" font-size="14" lengthAdjust="spacing" textLength="41" x="492.25" y="27.8467">Stylus</text><line style="stroke:#181818;stroke-width:0.5;" x1="420.5" x2="572.5" y1="39" y2="39"/><rect fill="none" height="6" style="stroke:#C82930;stroke-width:1.0;" width="6" x="427.5" y="49.6484"/><text fill="#000000" font-family="sans-serif" font-size="14" lengthAdjust="spacing" textLength="112" x="439.5" y="55.9951">Button1: Button</text><rect fill="none" height="6" style="stroke:#C82930;stroke-width:1.0;" width="6" x="427.5" y="65.9453"/><text fill="#000000" font-family="sans-serif" font-size="14" lengthAdjust="spacing" textLength="112" x="439.5" y="72.292">Button2: Button</text><rect fill="none" height="6" style="stroke:#C82930;stroke-width:1.0;" width="6" x="427.5" y="82.2422"/><text fill="#000000" font-family="sans-serif" font-size="14" lengthAdjust="spacing" textLength="94" x="439.5" y="88.5889">Sensitivity: Int</text><rect fill="none" height="6" style="stroke:#C82930;stroke-width:1.0;" width="6" x="427.5" y="98.5391"/><text fill="#000000" font-family="sans-serif" font-size="14" lengthAdjust="spacing" textLength="77" x="439.5" y="104.8857">Size: Pixels</text><line style="stroke:#181818;stroke-width:0.5;" x1="420.5" x2="572.5" y1="112.1875" y2="112.1875"/><ellipse cx="430.5" cy="125.8359" fill="#84BE84" rx="3" ry="3" style="stroke:#038048;stroke-width:1.0;"/><text fill="#000000" font-family="sans-serif" font-size="14" lengthAdjust="spacing" textLength="128" x="439.5" y="129.1826">Adjust_Sensitivity()</text><ellipse cx="430.5" cy="142.1328" fill="#84BE84" rx="3" ry="3" style="stroke:#038048;stroke-width:1.0;"/><text fill="#000000" font-family="sans-serif" font-size="14" lengthAdjust="spacing" textLength="89" x="439.5" y="145.4795">Adjust_Size()</text><ellipse cx="430.5" cy="158.4297" fill="#84BE84" rx="3" ry="3" style="stroke:#038048;stroke-width:1.0;"/><text fill="#000000" font-family="sans-serif" font-size="14" lengthAdjust="spacing" textLength="84" x="439.5" y="161.7764">Move_Tool()</text></g><!--class Tablet--><g id="elem_Tablet"><rect codeLine="34" fill="#F1F1F1" height="96.8906" id="Tablet" rx="2.5" ry="2.5" style="stroke:#181818;stroke-width:0.5;" width="115" x="608" y="39.59"/><ellipse cx="641" cy="55.59" fill="#ADD1B2" rx="11" ry="11" style="stroke:#181818;stroke-width:1.0;"/><path d="M643.9688,61.2306 Q643.3906,61.5275 642.75,61.6681 Q642.1094,61.8244 641.4063,61.8244 Q638.9063,61.8244 637.5781,60.1838 Q636.2656,58.5275 636.2656,55.4025 Q636.2656,52.2775 637.5781,50.6213 Q638.9063,48.965 641.4063,48.965 Q642.1094,48.965 642.75,49.1213 Q643.4063,49.2775 643.9688,49.5744 L643.9688,52.2931 Q643.3438,51.715 642.75,51.4494 Q642.1563,51.1681 641.5313,51.1681 Q640.1875,51.1681 639.5,52.2463 Q638.8125,53.3088 638.8125,55.4025 Q638.8125,57.4963 639.5,58.5744 Q640.1875,59.6369 641.5313,59.6369 Q642.1563,59.6369 642.75,59.3713 Q643.3438,59.09 643.9688,58.5119 L643.9688,61.2306 Z " fill="#000000"/><text fill="#000000" font-family="sans-serif" font-size="14" lengthAdjust="spacing" textLength="43" x="659" y="60.4367">Tablet</text><line style="stroke:#181818;stroke-width:0.5;" x1="609" x2="722" y1="71.59" y2="71.59"/><rect fill="none" height="6" style="stroke:#C82930;stroke-width:1.0;" width="6" x="616" y="82.2384"/><text fill="#000000" font-family="sans-serif" font-size="14" lengthAdjust="spacing" textLength="89" x="628" y="88.5851">Name: String</text><line style="stroke:#181818;stroke-width:0.5;" x1="609" x2="722" y1="95.8869" y2="95.8869"/><ellipse cx="619" cy="109.5353" fill="#84BE84" rx="3" ry="3" style="stroke:#038048;stroke-width:1.0;"/><text fill="#000000" font-family="sans-serif" font-size="14" lengthAdjust="spacing" textLength="69" x="628" y="112.882">Turn_On()</text><ellipse cx="619" cy="125.8322" fill="#84BE84" rx="3" ry="3" style="stroke:#038048;stroke-width:1.0;"/><text fill="#000000" font-family="sans-serif" font-size="14" lengthAdjust="spacing" textLength="68" x="628" y="129.1789">Turn_Off()</text></g><!--class Tool--><g id="elem_Tool"><rect codeLine="40" fill="#F1F1F1" height="162.0781" id="Tool" rx="2.5" ry="2.5" style="stroke:#181818;stroke-width:0.5;" width="119" x="521" y="229.08"/><ellipse cx="561.65" cy="245.08" fill="#ADD1B2" rx="11" ry="11" style="stroke:#181818;stroke-width:1.0;"/><path d="M564.6188,250.7206 Q564.0406,251.0175 563.4,251.1581 Q562.7594,251.3144 562.0563,251.3144 Q559.5563,251.3144 558.2281,249.6737 Q556.9156,248.0175 556.9156,244.8925 Q556.9156,241.7675 558.2281,240.1112 Q559.5563,238.455 562.0563,238.455 Q562.7594,238.455 563.4,238.6112 Q564.0563,238.7675 564.6188,239.0644 L564.6188,241.7831 Q563.9938,241.205 563.4,240.9394 Q562.8063,240.6581 562.1813,240.6581 Q560.8375,240.6581 560.15,241.7362 Q559.4625,242.7987 559.4625,244.8925 Q559.4625,246.9862 560.15,248.0644 Q560.8375,249.1269 562.1813,249.1269 Q562.8063,249.1269 563.4,248.8612 Q563.9938,248.58 564.6188,248.0019 L564.6188,250.7206 Z " fill="#000000"/><text fill="#000000" font-family="sans-serif" font-size="14" lengthAdjust="spacing" textLength="30" x="581.35" y="249.9267">Tool</text><line style="stroke:#181818;stroke-width:0.5;" x1="522" x2="639" y1="261.08" y2="261.08"/><rect fill="none" height="6" style="stroke:#C82930;stroke-width:1.0;" width="6" x="529" y="271.7284"/><text fill="#000000" font-family="sans-serif" font-size="14" lengthAdjust="spacing" textLength="89" x="541" y="278.0751">Name: String</text><rect fill="none" height="6" style="stroke:#C82930;stroke-width:1.0;" width="6" x="529" y="288.0253"/><text fill="#000000" font-family="sans-serif" font-size="14" lengthAdjust="spacing" textLength="77" x="541" y="294.372">Size: Pixels</text><rect fill="none" height="6" style="stroke:#C82930;stroke-width:1.0;" width="6" x="529" y="304.3222"/><text fill="#000000" font-family="sans-serif" font-size="14" lengthAdjust="spacing" textLength="81" x="541" y="310.6689">Color: Color</text><line style="stroke:#181818;stroke-width:0.5;" x1="522" x2="639" y1="317.9706" y2="317.9706"/><ellipse cx="532" cy="331.6191" fill="#84BE84" rx="3" ry="3" style="stroke:#038048;stroke-width:1.0;"/><text fill="#000000" font-family="sans-serif" font-size="14" lengthAdjust="spacing" textLength="90" x="541" y="334.9657">Select_Tool()</text><ellipse cx="532" cy="347.9159" fill="#84BE84" rx="3" ry="3" style="stroke:#038048;stroke-width:1.0;"/><text fill="#000000" font-family="sans-serif" font-size="14" lengthAdjust="spacing" textLength="91" x="541" y="351.2626">Import_Tool()</text><ellipse cx="532" cy="364.2128" fill="#84BE84" rx="3" ry="3" style="stroke:#038048;stroke-width:1.0;"/><text fill="#000000" font-family="sans-serif" font-size="14" lengthAdjust="spacing" textLength="93" x="541" y="367.5595">Create_Tool()</text><ellipse cx="532" cy="380.5097" fill="#84BE84" rx="3" ry="3" style="stroke:#038048;stroke-width:1.0;"/><text fill="#000000" font-family="sans-serif" font-size="14" lengthAdjust="spacing" textLength="93" x="541" y="383.8564">Delete_Tool()</text></g><!--class User--><g id="elem_User"><rect codeLine="50" fill="#F1F1F1" height="80.5938" id="User" rx="2.5" ry="2.5" style="stroke:#181818;stroke-width:0.5;" width="127" x="41" y="47.74"/><ellipse cx="84.35" cy="63.74" fill="#ADD1B2" rx="11" ry="11" style="stroke:#181818;stroke-width:1.0;"/><path d="M87.3188,69.3806 Q86.7406,69.6775 86.1,69.8181 Q85.4594,69.9744 84.7563,69.9744 Q82.2563,69.9744 80.9281,68.3338 Q79.6156,66.6775 79.6156,63.5525 Q79.6156,60.4275 80.9281,58.7713 Q82.2563,57.115 84.7563,57.115 Q85.4594,57.115 86.1,57.2713 Q86.7563,57.4275 87.3188,57.7244 L87.3188,60.4431 Q86.6938,59.865 86.1,59.5994 Q85.5063,59.3181 84.8813,59.3181 Q83.5375,59.3181 82.85,60.3963 Q82.1625,61.4588 82.1625,63.5525 Q82.1625,65.6463 82.85,66.7244 Q83.5375,67.7869 84.8813,67.7869 Q85.5063,67.7869 86.1,67.5213 Q86.6938,67.24 87.3188,66.6619 L87.3188,69.3806 Z " fill="#000000"/><text fill="#000000" font-family="sans-serif" font-size="14" lengthAdjust="spacing" textLength="32" x="104.65" y="68.5867">User</text><line style="stroke:#181818;stroke-width:0.5;" x1="42" x2="167" y1="79.74" y2="79.74"/><rect fill="none" height="6" style="stroke:#C82930;stroke-width:1.0;" width="6" x="49" y="90.3884"/><text fill="#000000" font-family="sans-serif" font-size="14" lengthAdjust="spacing" textLength="88" x="61" y="96.7351">name: String</text><line style="stroke:#181818;stroke-width:0.5;" x1="42" x2="167" y1="104.0369" y2="104.0369"/><ellipse cx="52" cy="117.6853" fill="#84BE84" rx="3" ry="3" style="stroke:#038048;stroke-width:1.0;"/><text fill="#000000" font-family="sans-serif" font-size="14" lengthAdjust="spacing" textLength="101" x="61" y="121.032">Add_Account()</text></g><!--class Color--><g id="elem_Color"><rect codeLine="55" fill="#F1F1F1" height="64.2969" id="Color" rx="2.5" ry="2.5" style="stroke:#181818;stroke-width:0.5;" width="151" x="505" y="483.75"/><ellipse cx="558.25" cy="499.75" fill="#ADD1B2" rx="11" ry="11" style="stroke:#181818;stroke-width:1.0;"/><path d="M561.2188,505.3906 Q560.6406,505.6875 560,505.8281 Q559.3594,505.9844 558.6563,505.9844 Q556.1563,505.9844 554.8281,504.3438 Q553.5156,502.6875 553.5156,499.5625 Q553.5156,496.4375 554.8281,494.7813 Q556.1563,493.125 558.6563,493.125 Q559.3594,493.125 560,493.2813 Q560.6563,493.4375 561.2188,493.7344 L561.2188,496.4531 Q560.5938,495.875 560,495.6094 Q559.4063,495.3281 558.7813,495.3281 Q557.4375,495.3281 556.75,496.4063 Q556.0625,497.4688 556.0625,499.5625 Q556.0625,501.6563 556.75,502.7344 Q557.4375,503.7969 558.7813,503.7969 Q559.4063,503.7969 560,503.5313 Q560.5938,503.25 561.2188,502.6719 L561.2188,505.3906 Z " fill="#000000"/><text fill="#000000" font-family="sans-serif" font-size="14" lengthAdjust="spacing" textLength="36" x="578.75" y="504.5967">Color</text><line style="stroke:#181818;stroke-width:0.5;" x1="506" x2="655" y1="515.75" y2="515.75"/><rect fill="none" height="6" style="stroke:#C82930;stroke-width:1.0;" width="6" x="513" y="526.3984"/><text fill="#000000" font-family="sans-serif" font-size="14" lengthAdjust="spacing" textLength="125" x="525" y="532.7451">color_code: String</text><line style="stroke:#181818;stroke-width:0.5;" x1="506" x2="655" y1="540.0469" y2="540.0469"/></g><!--link Workspace to File--><g id="link_Workspace_File"><path codeLine="59" d="M104.5,367.07 C104.5,392.99 104.5,423.93 104.5,450.79 " fill="none" id="Workspace-File" style="stroke:#181818;stroke-width:1.0;"/></g><!--link AI to Style--><g id="link_AI_Style"><path codeLine="60" d="M293.5,120.57 C293.5,162.41 293.5,235.84 293.5,277.64 " fill="none" id="AI-Style" style="stroke:#181818;stroke-width:1.0;"/></g><!--link Stylus to Tool--><g id="link_Stylus_Tool"><path codeLine="61" d="M527.18,169.43 C534.54,188.7 535.9834,192.4725 543.3434,211.7625 " fill="none" id="Stylus-to-Tool" style="stroke:#181818;stroke-width:1.0;"/><polygon fill="none" points="549.76,228.58,548.9492,209.6237,537.7376,213.9014,549.76,228.58" style="stroke:#181818;stroke-width:1.0;"/></g><!--link Tablet to Tool--><g id="link_Tablet_Tool"><path codeLine="62" d="M647.06,136.79 C636.66,163.72 629.8771,181.2796 617.9271,212.2096 " fill="none" id="Tablet-to-Tool" style="stroke:#181818;stroke-width:1.0;"/><polygon fill="none" points="611.44,229,623.5239,214.372,612.3303,210.0472,611.44,229" style="stroke:#181818;stroke-width:1.0;"/></g><!--reverse link Tool to Color--><g id="link_Tool_Color"><path codeLine="63" d="M580.5,403.36 C580.5,435.55 580.5,458.76 580.5,483.33 " fill="none" id="Tool-backto-Color" style="stroke:#181818;stroke-width:1.0;"/><polygon fill="none" points="580.5,391.36,576.5,397.36,580.5,403.36,584.5,397.36,580.5,391.36" style="stroke:#181818;stroke-width:1.0;"/></g><!--link User to Workspace--><g id="link_User_Workspace"><path codeLine="64" d="M104.5,128.64 C104.5,163.41 104.5,196.38 104.5,235.29 " fill="none" id="User-to-Workspace" style="stroke:#181818;stroke-width:1.0;"/><polygon fill="none" points="104.5,253.29,110.5,235.29,98.5,235.29,104.5,253.29" style="stroke:#181818;stroke-width:1.0;"/></g><!--SRC=[TL9DRm8X4Btlh-2eCHpQunwQM4rJ3_r8jF6uGNPMgGW6Patjntylpg92jIUOnypmvisJMdZFvjQj_LP8O5y5OvmjX5mldMrDNKchhIlPw724jm6pMp1LepJq-XHxiOCqbWu4df2Vef3qnKE8O_TdiO6IJT4fioHWh1n8j6wVeO-WbYiisQlw0Eq9cgiQLndYSQ-fMJZEdmqdzDM0pPmmlh5kGmcz_aKcXP6NINbb6QsFAVSjeZKtPRmas6s6JS5uXMgdCCmqCTY1wXCIyWCshDzRZrMI73KyFeI2Y3pPeFBCMfrgEXCB3NXTrJ1xwqprOcA3BcgQh3xq-sydVyZopW6f4QQWmzQEf0x8PBErBaD6dHaIP1ogy7AKDm_ksXewDUfgA6Mm8wObn2JMa4k3L-jiWMTRSqu6B88nmhNpG5mivzztf4GHvKo0WpwMnzaBuaYlfyQ_]--></g></svg>