<?xml version="1.0" encoding="us-ascii" standalone="no"?><svg xmlns="http://www.w3.org/2000/svg" xmlns:xlink="http://www.w3.org/1999/xlink" contentStyleType="text/css" height="617px" preserveAspectRatio="none" style="width:412px;height:617px;background:#FFFFFF;" version="1.1" viewBox="0 0 412 617" width="412px" zoomAndPan="magnify"><defs/><g><text fill="#000000" font-family="sans-serif" font-size="14" font-weight="bold" lengthAdjust="spacing" textLength="270" x="70.25" y="27.9951">Transforming Image Style using AI</text><rect fill="#FFFFFF" height="129.5313" style="stroke:#181818;stroke-width:1.0;" width="10" x="236" y="104.7266"/><rect fill="#FFFFFF" height="71.2656" style="stroke:#181818;stroke-width:1.0;" width="10" x="236" y="263.3906"/><rect fill="#FFFFFF" height="71.2656" style="stroke:#181818;stroke-width:1.0;" width="10" x="236" y="363.7891"/><rect fill="#FFFFFF" height="71.2656" style="stroke:#181818;stroke-width:1.0;" width="10" x="236" y="464.1875"/><rect fill="#FFFFFF" height="29.1328" style="stroke:#181818;stroke-width:1.0;" width="10" x="383" y="133.8594"/><line style="stroke:#181818;stroke-width:0.5;stroke-dasharray:5.0,5.0;" x1="28" x2="28" y1="73.5938" y2="582.5859"/><line style="stroke:#181818;stroke-width:0.5;stroke-dasharray:5.0,5.0;" x1="240.5" x2="240.5" y1="73.5938" y2="582.5859"/><line style="stroke:#181818;stroke-width:0.5;stroke-dasharray:5.0,5.0;" x1="387.5" x2="387.5" y1="73.5938" y2="582.5859"/><rect fill="#E2E2F0" height="30.2969" rx="2.5" ry="2.5" style="stroke:#181818;stroke-width:0.5;" width="46" x="5" y="42.2969"/><text fill="#000000" font-family="sans-serif" font-size="14" lengthAdjust="spacing" textLength="32" x="12" y="62.292">User</text><rect fill="#E2E2F0" height="30.2969" rx="2.5" ry="2.5" style="stroke:#181818;stroke-width:0.5;" width="46" x="5" y="581.5859"/><text fill="#000000" font-family="sans-serif" font-size="14" lengthAdjust="spacing" textLength="32" x="12" y="601.5811">User</text><rect fill="#E2E2F0" height="30.2969" rx="2.5" ry="2.5" style="stroke:#181818;stroke-width:0.5;" width="75" x="203.5" y="42.2969"/><text fill="#000000" font-family="sans-serif" font-size="14" lengthAdjust="spacing" textLength="61" x="210.5" y="62.292">AI_Model</text><rect fill="#E2E2F0" height="30.2969" rx="2.5" ry="2.5" style="stroke:#181818;stroke-width:0.5;" width="75" x="203.5" y="581.5859"/><text fill="#000000" font-family="sans-serif" font-size="14" lengthAdjust="spacing" textLength="61" x="210.5" y="601.5811">AI_Model</text><rect fill="#E2E2F0" height="30.2969" rx="2.5" ry="2.5" style="stroke:#181818;stroke-width:0.5;" width="37" x="369.5" y="42.2969"/><text fill="#000000" font-family="sans-serif" font-size="14" lengthAdjust="spacing" textLength="23" x="376.5" y="62.292">File</text><rect fill="#E2E2F0" height="30.2969" rx="2.5" ry="2.5" style="stroke:#181818;stroke-width:0.5;" width="37" x="369.5" y="581.5859"/><text fill="#000000" font-family="sans-serif" font-size="14" lengthAdjust="spacing" textLength="23" x="376.5" y="601.5811">File</text><rect fill="#FFFFFF" height="129.5313" style="stroke:#181818;stroke-width:1.0;" width="10" x="236" y="104.7266"/><rect fill="#FFFFFF" height="71.2656" style="stroke:#181818;stroke-width:1.0;" width="10" x="236" y="263.3906"/><rect fill="#FFFFFF" height="71.2656" style="stroke:#181818;stroke-width:1.0;" width="10" x="236" y="363.7891"/><rect fill="#FFFFFF" height="71.2656" style="stroke:#181818;stroke-width:1.0;" width="10" x="236" y="464.1875"/><rect fill="#FFFFFF" height="29.1328" style="stroke:#181818;stroke-width:1.0;" width="10" x="383" y="133.8594"/><polygon fill="#181818" points="224,100.7266,234,104.7266,224,108.7266,228,104.7266" style="stroke:#181818;stroke-width:1.0;"/><line style="stroke:#181818;stroke-width:1.0;" x1="28" x2="230" y1="104.7266" y2="104.7266"/><text fill="#000000" font-family="sans-serif" font-size="13" lengthAdjust="spacing" textLength="189" x="35" y="99.6606">Request Style Transformation</text><polygon fill="#181818" points="371,129.8594,381,133.8594,371,137.8594,375,133.8594" style="stroke:#181818;stroke-width:1.0;"/><line style="stroke:#181818;stroke-width:1.0;" x1="246" x2="377" y1="133.8594" y2="133.8594"/><text fill="#000000" font-family="sans-serif" font-size="13" lengthAdjust="spacing" textLength="56" x="253" y="128.7935">Load File</text><polygon fill="#181818" points="257,158.9922,247,162.9922,257,166.9922,253,162.9922" style="stroke:#181818;stroke-width:1.0;"/><line style="stroke:#181818;stroke-width:1.0;stroke-dasharray:2.0,2.0;" x1="251" x2="387" y1="162.9922" y2="162.9922"/><text fill="#000000" font-family="sans-serif" font-size="13" lengthAdjust="spacing" textLength="72" x="263" y="157.9263">File Loaded</text><line style="stroke:#181818;stroke-width:1.0;" x1="246" x2="288" y1="192.125" y2="192.125"/><line style="stroke:#181818;stroke-width:1.0;" x1="288" x2="288" y1="192.125" y2="205.125"/><line style="stroke:#181818;stroke-width:1.0;" x1="247" x2="288" y1="205.125" y2="205.125"/><polygon fill="#181818" points="257,201.125,247,205.125,257,209.125,253,205.125" style="stroke:#181818;stroke-width:1.0;"/><text fill="#000000" font-family="sans-serif" font-size="13" lengthAdjust="spacing" textLength="96" x="253" y="187.0591">Preprocess File</text><polygon fill="#181818" points="39,230.2578,29,234.2578,39,238.2578,35,234.2578" style="stroke:#181818;stroke-width:1.0;"/><line style="stroke:#181818;stroke-width:1.0;stroke-dasharray:2.0,2.0;" x1="33" x2="240" y1="234.2578" y2="234.2578"/><text fill="#000000" font-family="sans-serif" font-size="13" lengthAdjust="spacing" textLength="112" x="45" y="229.1919">Preprocessed File</text><polygon fill="#181818" points="224,259.3906,234,263.3906,224,267.3906,228,263.3906" style="stroke:#181818;stroke-width:1.0;"/><line style="stroke:#181818;stroke-width:1.0;" x1="28" x2="230" y1="263.3906" y2="263.3906"/><text fill="#000000" font-family="sans-serif" font-size="13" lengthAdjust="spacing" textLength="84" x="35" y="258.3247">Choose Style</text><line style="stroke:#181818;stroke-width:1.0;" x1="246" x2="288" y1="292.5234" y2="292.5234"/><line style="stroke:#181818;stroke-width:1.0;" x1="288" x2="288" y1="292.5234" y2="305.5234"/><line style="stroke:#181818;stroke-width:1.0;" x1="247" x2="288" y1="305.5234" y2="305.5234"/><polygon fill="#181818" points="257,301.5234,247,305.5234,257,309.5234,253,305.5234" style="stroke:#181818;stroke-width:1.0;"/><text fill="#000000" font-family="sans-serif" font-size="13" lengthAdjust="spacing" textLength="123" x="253" y="287.4575">Retrieve Style Data</text><polygon fill="#181818" points="39,330.6563,29,334.6563,39,338.6563,35,334.6563" style="stroke:#181818;stroke-width:1.0;"/><line style="stroke:#181818;stroke-width:1.0;stroke-dasharray:2.0,2.0;" x1="33" x2="240" y1="334.6563" y2="334.6563"/><text fill="#000000" font-family="sans-serif" font-size="13" lengthAdjust="spacing" textLength="67" x="45" y="329.5903">Style Data</text><polygon fill="#181818" points="224,359.7891,234,363.7891,224,367.7891,228,363.7891" style="stroke:#181818;stroke-width:1.0;"/><line style="stroke:#181818;stroke-width:1.0;" x1="28" x2="230" y1="363.7891" y2="363.7891"/><text fill="#000000" font-family="sans-serif" font-size="13" lengthAdjust="spacing" textLength="71" x="35" y="358.7231">Apply Style</text><line style="stroke:#181818;stroke-width:1.0;" x1="246" x2="288" y1="392.9219" y2="392.9219"/><line style="stroke:#181818;stroke-width:1.0;" x1="288" x2="288" y1="392.9219" y2="405.9219"/><line style="stroke:#181818;stroke-width:1.0;" x1="247" x2="288" y1="405.9219" y2="405.9219"/><polygon fill="#181818" points="257,401.9219,247,405.9219,257,409.9219,253,405.9219" style="stroke:#181818;stroke-width:1.0;"/><text fill="#000000" font-family="sans-serif" font-size="13" lengthAdjust="spacing" textLength="88" x="253" y="387.856">Style Transfer</text><polygon fill="#181818" points="39,431.0547,29,435.0547,39,439.0547,35,435.0547" style="stroke:#181818;stroke-width:1.0;"/><line style="stroke:#181818;stroke-width:1.0;stroke-dasharray:2.0,2.0;" x1="33" x2="240" y1="435.0547" y2="435.0547"/><text fill="#000000" font-family="sans-serif" font-size="13" lengthAdjust="spacing" textLength="106" x="45" y="429.9888">Transformed File</text><polygon fill="#181818" points="224,460.1875,234,464.1875,224,468.1875,228,464.1875" style="stroke:#181818;stroke-width:1.0;"/><line style="stroke:#181818;stroke-width:1.0;" x1="28" x2="230" y1="464.1875" y2="464.1875"/><text fill="#000000" font-family="sans-serif" font-size="13" lengthAdjust="spacing" textLength="57" x="35" y="459.1216">Save File</text><line style="stroke:#181818;stroke-width:1.0;" x1="246" x2="288" y1="493.3203" y2="493.3203"/><line style="stroke:#181818;stroke-width:1.0;" x1="288" x2="288" y1="493.3203" y2="506.3203"/><line style="stroke:#181818;stroke-width:1.0;" x1="247" x2="288" y1="506.3203" y2="506.3203"/><polygon fill="#181818" points="257,502.3203,247,506.3203,257,510.3203,253,506.3203" style="stroke:#181818;stroke-width:1.0;"/><text fill="#000000" font-family="sans-serif" font-size="13" lengthAdjust="spacing" textLength="103" x="253" y="488.2544">Postprocess File</text><polygon fill="#181818" points="39,531.4531,29,535.4531,39,539.4531,35,535.4531" style="stroke:#181818;stroke-width:1.0;"/><line style="stroke:#181818;stroke-width:1.0;stroke-dasharray:2.0,2.0;" x1="33" x2="240" y1="535.4531" y2="535.4531"/><text fill="#000000" font-family="sans-serif" font-size="13" lengthAdjust="spacing" textLength="91" x="45" y="530.3872">Processed File</text><polygon fill="#181818" points="229,560.5859,239,564.5859,229,568.5859,233,564.5859" style="stroke:#181818;stroke-width:1.0;"/><line style="stroke:#181818;stroke-width:1.0;stroke-dasharray:2.0,2.0;" x1="28" x2="235" y1="564.5859" y2="564.5859"/><text fill="#000000" font-family="sans-serif" font-size="13" lengthAdjust="spacing" textLength="65" x="35" y="559.52">File Saved</text><!--SRC=[bLBR2i8m37tlL_G7_84z24CH1WhYvLd26cTXjhMD0__UrMrTDmVJbrAIavEJd92a4ld9Wd9NRUzI5JoxGu7yIAywyNG-acQC6R0aSsb04Jyxj8D0cbrsMc0v26vaYOnvB5yi0oJX1tmyqL7R8RG6abeno4bMGDXJikxdMJndmhSQH4CVu4qp__B5eDidv0jGC84ZV4pTb-mj6gjpTAw1zQWQvkU98TWgYRXxwT_3hsvQktQxSyF6AoChiUfSMGF1bAee-wESr9ZozQ-QsBZw42Q415F_tCuHAXmPEoTchntDk_MhLT-duoM9gP8t]--></g></svg>