<?xml version="1.0" encoding="us-ascii" standalone="no"?><svg xmlns="http://www.w3.org/2000/svg" xmlns:xlink="http://www.w3.org/1999/xlink" contentStyleType="text/css" height="514px" preserveAspectRatio="none" style="width:535px;height:514px;background:#FFFFFF;" version="1.1" viewBox="0 0 535 514" width="535px" zoomAndPan="magnify"><defs/><g><text fill="#000000" font-family="sans-serif" font-size="14" font-weight="bold" lengthAdjust="spacing" textLength="214" x="161.75" y="27.9951">Creating a New Workspace</text><rect fill="#FFFFFF" height="305.9375" style="stroke:#181818;stroke-width:1.0;" width="10" x="239" y="104.7266"/><rect fill="#FFFFFF" height="29.1328" style="stroke:#181818;stroke-width:1.0;" width="10" x="448" y="187.125"/><rect fill="#FFFFFF" height="29.1328" style="stroke:#181818;stroke-width:1.0;" width="10" x="448" y="337.5938"/><rect fill="none" height="283.8047" style="stroke:#000000;stroke-width:1.5;" width="518.5" x="10" y="148.8594"/><rect fill="none" height="179.6016" style="stroke:#000000;stroke-width:1.5;" width="498.5" x="20" y="246.0625"/><rect fill="none" height="119.3359" style="stroke:#000000;stroke-width:1.5;" width="478.5" x="30" y="299.3281"/><line style="stroke:#181818;stroke-width:0.5;stroke-dasharray:5.0,5.0;" x1="63" x2="63" y1="73.5938" y2="478.7969"/><line style="stroke:#181818;stroke-width:0.5;stroke-dasharray:5.0,5.0;" x1="243.5" x2="243.5" y1="73.5938" y2="478.7969"/><line style="stroke:#181818;stroke-width:0.5;stroke-dasharray:5.0,5.0;" x1="452.5" x2="452.5" y1="73.5938" y2="478.7969"/><rect fill="#E2E2F0" height="30.2969" rx="2.5" ry="2.5" style="stroke:#181818;stroke-width:0.5;" width="46" x="40" y="42.2969"/><text fill="#000000" font-family="sans-serif" font-size="14" lengthAdjust="spacing" textLength="32" x="47" y="62.292">User</text><rect fill="#E2E2F0" height="30.2969" rx="2.5" ry="2.5" style="stroke:#181818;stroke-width:0.5;" width="46" x="40" y="477.7969"/><text fill="#000000" font-family="sans-serif" font-size="14" lengthAdjust="spacing" textLength="32" x="47" y="497.792">User</text><rect fill="#E2E2F0" height="30.2969" rx="2.5" ry="2.5" style="stroke:#181818;stroke-width:0.5;" width="41" x="223.5" y="42.2969"/><text fill="#000000" font-family="sans-serif" font-size="14" lengthAdjust="spacing" textLength="27" x="230.5" y="62.292">App</text><rect fill="#E2E2F0" height="30.2969" rx="2.5" ry="2.5" style="stroke:#181818;stroke-width:0.5;" width="41" x="223.5" y="477.7969"/><text fill="#000000" font-family="sans-serif" font-size="14" lengthAdjust="spacing" textLength="27" x="230.5" y="497.792">App</text><rect fill="#E2E2F0" height="30.2969" rx="2.5" ry="2.5" style="stroke:#181818;stroke-width:0.5;" width="91" x="407.5" y="42.2969"/><text fill="#000000" font-family="sans-serif" font-size="14" lengthAdjust="spacing" textLength="77" x="414.5" y="62.292">Workspace</text><rect fill="#E2E2F0" height="30.2969" rx="2.5" ry="2.5" style="stroke:#181818;stroke-width:0.5;" width="91" x="407.5" y="477.7969"/><text fill="#000000" font-family="sans-serif" font-size="14" lengthAdjust="spacing" textLength="77" x="414.5" y="497.792">Workspace</text><rect fill="#FFFFFF" height="305.9375" style="stroke:#181818;stroke-width:1.0;" width="10" x="239" y="104.7266"/><rect fill="#FFFFFF" height="29.1328" style="stroke:#181818;stroke-width:1.0;" width="10" x="448" y="187.125"/><rect fill="#FFFFFF" height="29.1328" style="stroke:#181818;stroke-width:1.0;" width="10" x="448" y="337.5938"/><polygon fill="#181818" points="227,100.7266,237,104.7266,227,108.7266,231,104.7266" style="stroke:#181818;stroke-width:1.0;"/><line style="stroke:#181818;stroke-width:1.0;" x1="63" x2="233" y1="104.7266" y2="104.7266"/><text fill="#000000" font-family="sans-serif" font-size="13" lengthAdjust="spacing" textLength="63" x="70" y="99.6606">Open App</text><polygon fill="#181818" points="227,129.8594,237,133.8594,227,137.8594,231,133.8594" style="stroke:#181818;stroke-width:1.0;"/><line style="stroke:#181818;stroke-width:1.0;" x1="63" x2="233" y1="133.8594" y2="133.8594"/><text fill="#000000" font-family="sans-serif" font-size="13" lengthAdjust="spacing" textLength="150" x="70" y="128.7935">Select 'New Workspace'</text><path d="M10,148.8594 L74,148.8594 L74,155.9922 L64,165.9922 L10,165.9922 L10,148.8594 " fill="#EEEEEE" style="stroke:#000000;stroke-width:1.5;"/><rect fill="none" height="283.8047" style="stroke:#000000;stroke-width:1.5;" width="518.5" x="10" y="148.8594"/><text fill="#000000" font-family="sans-serif" font-size="13" font-weight="bold" lengthAdjust="spacing" textLength="19" x="25" y="161.9263">alt</text><text fill="#000000" font-family="sans-serif" font-size="11" font-weight="bold" lengthAdjust="spacing" textLength="123" x="89" y="161.0698">[Workspace exists]</text><polygon fill="#181818" points="436,183.125,446,187.125,436,191.125,440,187.125" style="stroke:#181818;stroke-width:1.0;"/><line style="stroke:#181818;stroke-width:1.0;" x1="249" x2="442" y1="187.125" y2="187.125"/><text fill="#000000" font-family="sans-serif" font-size="13" lengthAdjust="spacing" textLength="159" x="256" y="182.0591">LoadExistingWorkspace()</text><polygon fill="#181818" points="260,212.2578,250,216.2578,260,220.2578,256,216.2578" style="stroke:#181818;stroke-width:1.0;"/><line style="stroke:#181818;stroke-width:1.0;stroke-dasharray:2.0,2.0;" x1="254" x2="452" y1="216.2578" y2="216.2578"/><text fill="#000000" font-family="sans-serif" font-size="13" lengthAdjust="spacing" textLength="175" x="266" y="211.1919">ExistingWorkspaceLoaded()</text><line style="stroke:#000000;stroke-width:1.0;stroke-dasharray:2.0,2.0;" x1="10" x2="528.5" y1="225.2578" y2="225.2578"/><text fill="#000000" font-family="sans-serif" font-size="11" font-weight="bold" lengthAdjust="spacing" textLength="157" x="15" y="235.4683">[Create new workspace]</text><path d="M20,246.0625 L97,246.0625 L97,253.1953 L87,263.1953 L20,263.1953 L20,246.0625 " fill="#EEEEEE" style="stroke:#000000;stroke-width:1.5;"/><rect fill="none" height="179.6016" style="stroke:#000000;stroke-width:1.5;" width="498.5" x="20" y="246.0625"/><text fill="#000000" font-family="sans-serif" font-size="13" font-weight="bold" lengthAdjust="spacing" textLength="32" x="35" y="259.1294">loop</text><text fill="#000000" font-family="sans-serif" font-size="11" font-weight="bold" lengthAdjust="spacing" textLength="203" x="112" y="258.2729">[until suitable name is entered]</text><polygon fill="#181818" points="227,280.3281,237,284.3281,227,288.3281,231,284.3281" style="stroke:#181818;stroke-width:1.0;"/><line style="stroke:#181818;stroke-width:1.0;" x1="63" x2="233" y1="284.3281" y2="284.3281"/><text fill="#000000" font-family="sans-serif" font-size="13" lengthAdjust="spacing" textLength="152" x="70" y="279.2622">EnterWorkspaceName()</text><path d="M30,299.3281 L94,299.3281 L94,306.4609 L84,316.4609 L30,316.4609 L30,299.3281 " fill="#EEEEEE" style="stroke:#000000;stroke-width:1.5;"/><rect fill="none" height="119.3359" style="stroke:#000000;stroke-width:1.5;" width="478.5" x="30" y="299.3281"/><text fill="#000000" font-family="sans-serif" font-size="13" font-weight="bold" lengthAdjust="spacing" textLength="19" x="45" y="312.395">alt</text><text fill="#000000" font-family="sans-serif" font-size="11" font-weight="bold" lengthAdjust="spacing" textLength="117" x="109" y="311.5386">[Name is suitable]</text><polygon fill="#181818" points="436,333.5938,446,337.5938,436,341.5938,440,337.5938" style="stroke:#181818;stroke-width:1.0;"/><line style="stroke:#181818;stroke-width:1.0;" x1="249" x2="442" y1="337.5938" y2="337.5938"/><text fill="#000000" font-family="sans-serif" font-size="13" lengthAdjust="spacing" textLength="149" x="256" y="332.5278">CreateNewWorkspace()</text><polygon fill="#181818" points="260,362.7266,250,366.7266,260,370.7266,256,366.7266" style="stroke:#181818;stroke-width:1.0;"/><line style="stroke:#181818;stroke-width:1.0;stroke-dasharray:2.0,2.0;" x1="254" x2="452" y1="366.7266" y2="366.7266"/><text fill="#000000" font-family="sans-serif" font-size="13" lengthAdjust="spacing" textLength="130" x="266" y="361.6606">WorkspaceCreated()</text><line style="stroke:#000000;stroke-width:1.0;stroke-dasharray:2.0,2.0;" x1="30" x2="508.5" y1="375.7266" y2="375.7266"/><text fill="#000000" font-family="sans-serif" font-size="11" font-weight="bold" lengthAdjust="spacing" textLength="142" x="35" y="385.937">[Name is not suitable]</text><polygon fill="#181818" points="74,406.6641,64,410.6641,74,414.6641,70,410.6641" style="stroke:#181818;stroke-width:1.0;"/><line style="stroke:#181818;stroke-width:1.0;stroke-dasharray:2.0,2.0;" x1="68" x2="243" y1="410.6641" y2="410.6641"/><text fill="#000000" font-family="sans-serif" font-size="13" lengthAdjust="spacing" textLength="87" x="80" y="405.5981">DisplayError()</text><polygon fill="#181818" points="74,456.7969,64,460.7969,74,464.7969,70,460.7969" style="stroke:#181818;stroke-width:1.0;"/><line style="stroke:#181818;stroke-width:1.0;stroke-dasharray:2.0,2.0;" x1="68" x2="243" y1="460.7969" y2="460.7969"/><text fill="#000000" font-family="sans-serif" font-size="13" lengthAdjust="spacing" textLength="150" x="80" y="455.731">Display New Workspace</text><!--SRC=[VPAnJiGm38RtFeMtW-5Ue0CIWcwe32V4R5eBHOGaIdmSl3rnsgIa129LLUpVd-rVOSMQuCuJiZAlW33I1PwjVmiE9-eSUbQJScWOdWBvAd3hN7NVoZhHml5693qyEZ99Z1Eh3sHAbrfp8aqJmw5gV-XG_y02VQh0eODuOf7KbbmF3nRdGGHnZnA-kaxgqdWRKS8R-PZd-4KGBCqhPwO6YNHO7IGmSVnBrKDRw-1iM6a8PyNu4kqs-4wW0f1XyZGddPpAaK6IfSiOIzOXqaBHbt6bP6n9jlrP9ep-xiqfpBP9-JJCAg65FU-0JRToChcMLp2M_raZjXDdUhXNmMdy6hot_kzUyhXA5xEuAt_vkYPmz-XhrZS0]--></g></svg>