<?xml version="1.0" encoding="us-ascii" standalone="no"?><svg xmlns="http://www.w3.org/2000/svg" xmlns:xlink="http://www.w3.org/1999/xlink" contentStyleType="text/css" height="841px" preserveAspectRatio="none" style="width:613px;height:841px;background:#FFFFFF;" version="1.1" viewBox="0 0 613 841" width="613px" zoomAndPan="magnify"><defs/><g><!--cluster Operations--><g id="cluster_Operations"><rect fill="none" height="644" rx="2.5" ry="2.5" style="stroke:#181818;stroke-width:1.0;" width="522.33" x="85" y="97.65"/><text fill="#000000" font-family="sans-serif" font-size="14" font-weight="bold" lengthAdjust="spacing" textLength="87" x="302.665" y="112.6451">Operations</text></g><g id="elem_UC1"><ellipse cx="201.8848" cy="149.649" fill="#F1F1F1" rx="74.9948" ry="17.399" style="stroke:#181818;stroke-width:0.5;"/><text fill="#000000" font-family="sans-serif" font-size="14" lengthAdjust="spacing" textLength="106" x="145.8848" y="153.3965">Transform style</text></g><g id="elem_UC2"><ellipse cx="201.8825" cy="216.6525" fill="#F1F1F1" rx="63.0625" ry="15.0125" style="stroke:#181818;stroke-width:0.5;"/><text fill="#000000" font-family="sans-serif" font-size="14" lengthAdjust="spacing" textLength="73" x="162.3825" y="220.4001">Select tool</text></g><g id="elem_UC3"><ellipse cx="201.8799" cy="288.652" fill="#F1F1F1" rx="97.2599" ry="21.852" style="stroke:#181818;stroke-width:0.5;"/><text fill="#000000" font-family="sans-serif" font-size="14" lengthAdjust="spacing" textLength="158" x="122.8799" y="291.4987">Create new workspace</text></g><g id="elem_UC4"><ellipse cx="201.8822" cy="367.6464" fill="#F1F1F1" rx="100.8822" ry="22.5764" style="stroke:#181818;stroke-width:0.5;"/><text fill="#000000" font-family="sans-serif" font-size="14" lengthAdjust="spacing" textLength="166" x="118.8822" y="370.4931">Open recent workspace</text></g><g id="elem_UC5"><ellipse cx="201.8791" cy="443.6518" fill="#F1F1F1" rx="78.5591" ry="18.1118" style="stroke:#181818;stroke-width:0.5;"/><text fill="#000000" font-family="sans-serif" font-size="14" lengthAdjust="spacing" textLength="115" x="142.1528" y="447.1925">Create new layer</text></g><g id="elem_UC6"><ellipse cx="201.8778" cy="513.6536" fill="#F1F1F1" rx="73.0678" ry="17.0136" style="stroke:#181818;stroke-width:0.5;"/><text fill="#000000" font-family="sans-serif" font-size="14" lengthAdjust="spacing" textLength="101" x="148.3778" y="517.4011">Duplicate layer</text></g><g id="elem_UC7"><ellipse cx="201.8849" cy="580.647" fill="#F1F1F1" rx="62.7349" ry="14.947" style="stroke:#181818;stroke-width:0.5;"/><text fill="#000000" font-family="sans-serif" font-size="14" lengthAdjust="spacing" textLength="72" x="162.8849" y="584.3945">Mask layer</text></g><g id="elem_UC8"><ellipse cx="201.8764" cy="645.6522" fill="#F1F1F1" rx="60.0664" ry="14.7722" style="stroke:#181818;stroke-width:0.5;"/><text fill="#000000" font-family="sans-serif" font-size="14" lengthAdjust="spacing" textLength="67" x="165.3764" y="649.3998">Export file</text></g><g id="elem_UC9"><ellipse cx="201.8764" cy="710.6522" fill="#F1F1F1" rx="60.0664" ry="14.7722" style="stroke:#181818;stroke-width:0.5;"/><text fill="#000000" font-family="sans-serif" font-size="14" lengthAdjust="spacing" textLength="67" x="165.3764" y="714.3998">Import file</text></g><g id="elem_UC10"><ellipse cx="511.5539" cy="216.6468" fill="#F1F1F1" rx="79.7839" ry="18.3568" style="stroke:#181818;stroke-width:0.5;"/><text fill="#000000" font-family="sans-serif" font-size="14" lengthAdjust="spacing" textLength="118" x="450.8056" y="220.0513">set tool proprties</text></g><g id="elem_UC11"><ellipse cx="511.5543" cy="497.6484" fill="#F1F1F1" rx="51.8543" ry="14.7084" style="stroke:#181818;stroke-width:0.5;"/><text fill="#000000" font-family="sans-serif" font-size="14" lengthAdjust="spacing" textLength="56" x="480.5543" y="501.396">use tool</text></g><!--entity User--><g id="elem_User"><ellipse cx="22" cy="457" fill="#F1F1F1" rx="8" ry="8" style="stroke:#181818;stroke-width:0.5;"/><path d="M22,465 L22,492 M9,473 L35,473 M22,492 L9,507 M22,492 L35,507 " fill="none" style="stroke:#181818;stroke-width:0.5;"/><text fill="#000000" font-family="sans-serif" font-size="14" lengthAdjust="spacing" textLength="32" x="6" y="521.4951">User</text></g><!--entity Stylus--><g id="elem_Stylus"><ellipse cx="201.88" cy="769" fill="#F1F1F1" rx="8" ry="8" style="stroke:#181818;stroke-width:0.5;"/><path d="M201.88,777 L201.88,804 M188.88,785 L214.88,785 M201.88,804 L188.88,819 M201.88,804 L214.88,819 " fill="none" style="stroke:#181818;stroke-width:0.5;"/><text fill="#000000" font-family="sans-serif" font-size="14" lengthAdjust="spacing" textLength="41" x="181.38" y="833.4951">Stylus</text></g><!--entity AI--><g id="elem_AI"><ellipse cx="511.55" cy="14" fill="#F1F1F1" rx="8" ry="8" style="stroke:#181818;stroke-width:0.5;"/><path d="M511.55,22 L511.55,49 M498.55,30 L524.55,30 M511.55,49 L498.55,64 M511.55,49 L524.55,64 " fill="none" style="stroke:#181818;stroke-width:0.5;"/><text fill="#000000" font-family="sans-serif" font-size="14" lengthAdjust="spacing" textLength="12" x="505.55" y="78.4951">AI</text></g><!--reverse link UC2 to UC11--><g id="link_UC2_UC11"><path d="M256.3504,228.2885 C273.7504,233.3585 287.2,239.09 302.76,249.65 C400.37,315.89 477.66,440.34 502.29,482.92 " fill="none" id="UC2-backto-UC11" style="stroke:#181818;stroke-width:1.0;stroke-dasharray:7.0,7.0;"/><polygon fill="#181818" points="250.59,226.61,258.1117,232.968,255.3904,228.0087,260.3497,225.2874,250.59,226.61" style="stroke:#181818;stroke-width:1.0;"/><text fill="#000000" font-family="sans-serif" font-size="13" lengthAdjust="spacing" textLength="67" x="333.76" y="272.7169">&#171;extends&#187;</text></g><!--reverse link UC2 to UC10--><g id="link_UC2_UC10"><path d="M271.14,216.65 C319.08,216.65 379.67,216.65 431.39,216.65 " fill="none" id="UC2-backto-UC10" style="stroke:#181818;stroke-width:1.0;stroke-dasharray:7.0,7.0;"/><polygon fill="#181818" points="265.14,216.65,274.14,220.65,270.14,216.65,274.14,212.65,265.14,216.65" style="stroke:#181818;stroke-width:1.0;"/><text fill="#000000" font-family="sans-serif" font-size="13" lengthAdjust="spacing" textLength="67" x="333.76" y="212.7169">&#171;extends&#187;</text></g><!--link User to UC2--><g id="link_User_UC2"><path d="M26.96,448.07 C33.86,388.41 49.98,277.67 77,249.65 C93.38,232.67 111.5322,225.1927 134.1022,220.9727 " fill="none" id="User-to-UC2" style="stroke:#181818;stroke-width:1.0;"/><polygon fill="#181818" points="140,219.87,130.4182,217.5922,135.0852,220.7889,131.8885,225.456,140,219.87" style="stroke:#181818;stroke-width:1.0;"/></g><!--link User to UC3--><g id="link_User_UC3"><path d="M26.3,448.06 C31.38,412.2 44.28,359.65 77,327.65 C89.41,315.51 99.9045,309.1254 116.4245,303.3654 " fill="none" id="User-to-UC3" style="stroke:#181818;stroke-width:1.0;"/><polygon fill="#181818" points="122.09,301.39,112.2748,300.5761,117.3688,303.0361,114.9087,308.1301,122.09,301.39" style="stroke:#181818;stroke-width:1.0;"/></g><!--link User to UC4--><g id="link_User_UC4"><path d="M38.33,454.74 C47.53,438.6 60.63,419.88 77,407.65 C91.57,396.76 103.5432,390.6731 120.9032,384.8331 " fill="none" id="User-to-UC4" style="stroke:#181818;stroke-width:1.0;"/><polygon fill="#181818" points="126.59,382.92,116.7844,381.9984,121.851,384.5142,119.3351,389.5808,126.59,382.92" style="stroke:#181818;stroke-width:1.0;"/></g><!--link User to UC5--><g id="link_User_UC5"><path d="M38.35,481.97 C47.02,479.39 58.08,476.2 68,473.65 C92.39,467.38 113.6311,462.4233 136.9611,457.2733 " fill="none" id="User-to-UC5" style="stroke:#181818;stroke-width:1.0;"/><polygon fill="#181818" points="142.82,455.98,133.1694,454.014,137.9375,457.0578,134.8938,461.826,142.82,455.98" style="stroke:#181818;stroke-width:1.0;"/></g><!--link User to UC6--><g id="link_User_UC6"><path d="M38.47,489 C60.87,492.4 97.658,497.9789 133.668,503.4489 " fill="none" id="User-to-UC6" style="stroke:#181818;stroke-width:1.0;"/><polygon fill="#181818" points="139.6,504.35,131.3028,499.0437,134.6567,503.5991,130.1014,506.953,139.6,504.35" style="stroke:#181818;stroke-width:1.0;"/></g><!--link User to UC7--><g id="link_User_UC7"><path d="M38.34,510.45 C47.96,523.55 61.46,539.05 77,548.65 C97.6,561.38 117.2334,567.8592 139.7534,572.4992 " fill="none" id="User-to-UC7" style="stroke:#181818;stroke-width:1.0;"/><polygon fill="#181818" points="145.63,573.71,137.6224,567.9761,140.7329,572.701,136.008,575.8115,145.63,573.71" style="stroke:#181818;stroke-width:1.0;"/></g><!--link User to UC8--><g id="link_User_UC8"><path d="M30.08,525.03 C37.23,553.17 51.08,590.23 77,612.65 C95.52,628.67 115.0923,635.9067 138.1323,640.2167 " fill="none" id="User-to-UC8" style="stroke:#181818;stroke-width:1.0;"/><polygon fill="#181818" points="144.03,641.32,135.919,635.7333,139.1153,640.4006,134.448,643.5969,144.03,641.32" style="stroke:#181818;stroke-width:1.0;"/></g><!--link User to UC9--><g id="link_User_UC9"><path d="M23.18,525.21 C25.51,568.29 36,637.27 77,677.65 C94.44,694.83 113.8624,702.2913 137.0724,706.4113 " fill="none" id="User-to-UC9" style="stroke:#181818;stroke-width:1.0;"/><polygon fill="#181818" points="142.98,707.46,134.8176,701.9486,138.057,706.5861,133.4194,709.8254,142.98,707.46" style="stroke:#181818;stroke-width:1.0;"/></g><!--reverse link UC1 to AI--><g id="link_UC1_AI"><path d="M251.0128,133.0656 C321.8928,108.6456 455.11,62.75 497.77,48.05 " fill="none" id="UC1-backto-AI" style="stroke:#181818;stroke-width:1.0;"/><polygon fill="#181818" points="245.34,135.02,255.1521,135.8702,250.0673,133.3913,252.5462,128.3065,245.34,135.02" style="stroke:#181818;stroke-width:1.0;"/></g><!--link Stylus to UC11--><g id="link_Stylus_UC11"><path d="M222.54,789.95 C243.65,780.06 277.55,762.54 302.76,741.65 C391.87,667.81 469.9862,557.8484 497.4062,517.3484 " fill="none" id="Stylus-to-UC11" style="stroke:#181818;stroke-width:1.0;"/><polygon fill="#181818" points="500.77,512.38,492.4121,517.5901,497.9668,516.5203,499.0366,522.0751,500.77,512.38" style="stroke:#181818;stroke-width:1.0;"/></g><!--SRC=[VP9FQm8n4CNl-oa6J_MmudzjaOLYU_1GUh1-WB3Esh0n2JDPL4g_UnCQ9MbfR_DuFnwJDr7OE706I1xU7UmbOUsaqGMtKbj1uWXMrAquuDPT54AmXJueB4Jj3C6EaU8OW8wZUDmKnOs5LuiaGYp3Hm7GCTQ24Nfl93GtXex08Rq7Wc6t7gN85fMFyHiQ5UrnQgy9XKFGU8AJePRzijUOIShv3NHO7hNx1Kx_25JYWXIPMSeyTLR9Ec0fCa-H5y5jvYvIz_bi3JbevEtDozJU77_QzuaDFSRlGi2IiUGayhMvOSRvAIrk58g5kp3qOT3PGHN4k0yFi5hXsQ7USrKL0HZ-1_YKS7OeoogU8v6JN4vpESlbF9UBN2vp6Jhmgy6gBCFtWlZXekiVz_a5]--></g></svg>